<svg width="180" height="180" viewBox="0 0 180 180" fill="none" xmlns="http://www.w3.org/2000/svg">
    <rect x="5" y="5" width="170" height="170" fill="#101010" />
    <rect x="5" y="5" width="170" height="170" fill="#101010" />
    <rect x="5" y="5" width="170" height="170" stroke="white" stroke-width="10" />
    <path
        d="M40.4616 125H24.6435L48.7457 55.1818H67.7685L91.8367 125H76.0185L58.5298 71.1364H57.9844L40.4616 125ZM39.473 97.5568H76.8367V109.08H39.473V97.5568ZM100.24 125V55.1818H128.195C133.331 55.1818 137.615 55.9432 141.047 57.4659C144.479 58.9886 147.058 61.1023 148.786 63.8068C150.513 66.4886 151.376 69.5795 151.376 73.0795C151.376 75.8068 150.831 78.2045 149.74 80.2727C148.649 82.3182 147.149 84 145.24 85.3182C143.354 86.6136 141.195 87.5341 138.763 88.0795V88.7614C141.422 88.875 143.911 89.625 146.229 91.0114C148.57 92.3977 150.467 94.3409 151.922 96.8409C153.376 99.3182 154.104 102.273 154.104 105.705C154.104 109.409 153.183 112.716 151.342 115.625C149.524 118.511 146.831 120.795 143.263 122.477C139.695 124.159 135.297 125 130.07 125H100.24ZM115.001 112.932H127.036C131.149 112.932 134.149 112.148 136.036 110.58C137.922 108.989 138.865 106.875 138.865 104.239C138.865 102.307 138.399 100.602 137.467 99.125C136.536 97.6477 135.206 96.4886 133.479 95.6477C131.774 94.8068 129.74 94.3864 127.376 94.3864H115.001V112.932ZM115.001 84.3977H125.945C127.967 84.3977 129.763 84.0455 131.331 83.3409C132.922 82.6136 134.172 81.5909 135.081 80.2727C136.013 78.9545 136.479 77.375 136.479 75.5341C136.479 73.0114 135.581 70.9773 133.786 69.4318C132.013 67.8864 129.49 67.1136 126.217 67.1136H115.001V84.3977Z"
        fill="#E7E7E7" />
</svg>