<?xml version="1.0" encoding="UTF-8" standalone="yes"?>
<svg width="180" height="180" viewBox="0 0 180 180" fill="none" version="1.2" baseProfile="tiny-ps" xmlns="http://www.w3.org/2000/svg">
  <title>bimi-svg-tiny-12-ps</title>
  <rect x="5" y="5" width="170" height="170" rx="23" fill="#101010"/>
  <rect x="5" y="5" width="170" height="170" rx="23" fill="#101010"/>
  <rect x="5" y="5" width="170" height="170" rx="23" stroke="white" stroke-width="10"/>
  <path d="M24.7238 122C24.2118 122 23.7318 121.808 23.2838 121.424C22.8998 120.976 22.7078 120.496 22.7078 119.984C22.7078 119.664 22.7398 119.376 22.8038 119.12L45.3638 57.488C45.5558 56.784 45.9398 56.176 46.5157 55.664C47.1558 55.088 48.0198 54.8 49.1078 54.8H63.3158C64.4038 54.8 65.2358 55.088 65.8118 55.664C66.4518 56.176 66.8678 56.784 67.0598 57.488L89.5238 119.12C89.6518 119.376 89.7158 119.664 89.7158 119.984C89.7158 120.496 89.4918 120.976 89.0438 121.424C88.6598 121.808 88.1798 122 87.6038 122H75.7958C74.8358 122 74.0998 121.776 73.5878 121.328C73.1398 120.816 72.8518 120.368 72.7238 119.984L68.9798 110.192H43.3478L39.6998 119.984C39.5718 120.368 39.2838 120.816 38.8358 121.328C38.3878 121.776 37.6198 122 36.5318 122H24.7238ZM47.2838 96.368H65.1398L56.1158 71.024L47.2838 96.368ZM99.6825 122C98.9785 122 98.4025 121.776 97.9545 121.328C97.5065 120.88 97.2825 120.304 97.2825 119.6V57.2C97.2825 56.496 97.5065 55.92 97.9545 55.472C98.4025 55.024 98.9785 54.8 99.6825 54.8H128.963C134.467 54.8 138.979 55.568 142.499 57.104C146.019 58.64 148.611 60.848 150.275 63.728C152.003 66.544 152.867 69.904 152.867 73.808C152.867 76.112 152.419 78.16 151.523 79.952C150.691 81.68 149.635 83.12 148.355 84.272C147.139 85.424 145.987 86.256 144.899 86.768C147.331 87.92 149.475 89.808 151.331 92.432C153.251 95.056 154.211 98.128 154.211 101.648C154.211 105.872 153.251 109.52 151.331 112.592C149.475 115.6 146.723 117.936 143.075 119.6C139.491 121.2 135.075 122 129.827 122H99.6825ZM114.467 109.52H127.907C130.659 109.52 132.739 108.72 134.147 107.12C135.555 105.52 136.259 103.696 136.259 101.648C136.259 99.408 135.523 97.52 134.051 95.984C132.643 94.448 130.595 93.68 127.907 93.68H114.467V109.52ZM114.467 81.488H127.043C129.667 81.488 131.619 80.816 132.899 79.472C134.243 78.128 134.915 76.4 134.915 74.288C134.915 72.24 134.243 70.576 132.899 69.296C131.619 67.952 129.667 67.28 127.043 67.28H114.467V81.488Z" fill="#E7E7E7"/>
</svg>