<svg width="435" height="142" viewBox="0 0 435 142" fill="none" xmlns="http://www.w3.org/2000/svg">
<rect width="435" height="141.299" fill="#20162D"/>
<path d="M42.7614 92.1098C47.5712 90.3526 52.2167 88.1478 57.2313 86.7147C57.9737 86.4511 58.684 86.3981 59.3664 86.1562C64.0446 84.4982 68.7845 83.0368 73.6273 81.9414C78.917 80.745 84.2301 79.7532 89.7084 80.1944C92.048 80.3829 94.2661 80.8894 96.3337 82.0209L98.2818 82.938C98.3508 82.9318 98.357 82.7695 98.0047 82.2749C97.8115 82.0034 97.6544 81.6694 97.4927 81.4253C88.4982 67.8441 79.5135 54.2564 70.5001 40.6877C66.0114 33.9305 57.3014 34.0824 52.9393 40.9101C47.4338 49.5273 41.8676 58.1056 36.3267 66.7002C32.5869 72.5009 28.8275 78.289 25.1125 84.1055C23.1984 87.1024 23.3598 90.4568 25.4441 93.0449C27.6573 95.7932 30.8473 96.6474 34.2834 95.3613C37.1179 94.3003 39.9188 93.1483 42.7614 92.1098Z" fill="#8A3BED"/>
<path d="M59.651 85.6885C58.8039 85.9857 58.1973 86.0751 57.2981 86.6865C62.5281 86.0948 67.3623 87.4983 72.1136 89.0951C78.276 91.1661 84.3731 93.4306 90.5197 95.5495C94.8087 97.0281 99.1227 94.731 100.336 90.4141C101.142 87.5435 100.189 85.1313 98.349 82.888C98.1566 82.64 98.1245 82.527 97.8398 82.3818C96.2424 81.5671 94.7452 80.749 93.0424 80.3386C88.4078 79.2218 83.7777 79.7076 79.1849 80.4489C72.5044 81.5272 66.0293 83.4503 59.651 85.6885Z" fill="#4C1393"/>
<path d="M307.514 111.724C305.44 111.724 303.519 111.724 301.519 111.724C301.519 92.3106 301.519 73.0125 301.519 53.6041C304.562 53.6041 307.633 53.6041 310.881 53.6041C310.881 54.5656 310.881 55.589 310.881 56.5542C312.962 55.5856 314.837 54.411 316.881 53.8101C330.469 49.8152 343.214 59.0627 343.812 73.2414C344.109 80.2658 342.258 86.504 337.09 91.4985C330.419 97.9454 319.241 98.73 311.684 93.3232C311.52 93.206 311.356 93.0887 310.999 92.8327C310.999 99.1857 310.999 105.381 310.999 111.724C309.774 111.724 308.72 111.724 307.514 111.724ZM317.818 62.6418C314.961 63.8448 312.983 65.9208 311.815 68.7683C310.63 71.6565 310.408 74.6483 310.88 77.7234C312.06 85.3983 318.911 89.7389 326.273 87.2943C331.33 85.6153 333.677 81.6615 334.229 76.6127C335.285 66.9531 328.17 59.4517 317.818 62.6418Z" fill="white"/>
<path d="M133.657 96.2087C133.106 96.2087 132.704 96.2087 132.209 96.2087C132.209 77.7702 132.209 59.3977 132.209 41.0337C132.325 40.9799 132.411 40.9042 132.497 40.9043C141.343 40.9115 150.194 40.7411 159.033 40.9822C170.685 41.3001 178.117 50.1832 176.729 61.7434C175.549 71.5786 169.073 77.3107 158.347 77.7598C153.373 77.968 148.384 77.8184 143.401 77.8307C142.853 77.832 142.305 77.8309 141.643 77.8309C141.643 83.9832 141.643 90.0114 141.643 96.2087C138.956 96.2087 136.381 96.2087 133.657 96.2087ZM156.941 50.0959C151.873 50.0959 146.805 50.0959 141.704 50.0959C141.704 56.3491 141.704 62.4629 141.704 68.6776C145.15 68.6776 148.497 68.7099 151.843 68.6674C154.531 68.6332 157.241 68.6954 159.902 68.382C164.44 67.8475 167.018 64.8448 167.315 60.1545C167.634 55.1069 165.446 51.7149 161.001 50.5585C159.789 50.243 158.495 50.2415 156.941 50.0959Z" fill="white"/>
<path d="M409.73 83.5119C406.985 90.2464 402.458 94.8435 395.285 96.3689C379.488 99.7288 366.466 87.5343 368.76 71.5148C370.041 62.5728 374.731 56.2775 383.58 53.7148C397.74 49.614 410.862 59.5587 410.921 74.2677C410.927 75.7919 410.922 77.3161 410.922 79.0117C400.198 79.0117 389.511 79.0117 378.799 79.0117C379.418 83.1276 383.161 86.86 387.373 87.6074C391.982 88.4252 396.07 87.628 399.069 83.6302C399.275 83.3551 399.706 83.093 400.035 83.0895C403.186 83.056 406.337 83.077 409.488 83.0991C409.578 83.0998 409.666 83.2851 409.73 83.5119ZM388.214 69.9266C392.312 69.9266 396.41 69.9266 400.535 69.9266C399.529 65.0756 395.075 61.821 389.656 61.8607C384.277 61.9 379.915 65.1377 378.944 69.9266C381.949 69.9266 384.929 69.9266 388.214 69.9266Z" fill="white"/>
<path d="M242.934 59.8806C242.934 72.0248 242.934 84.0165 242.934 96.1083C239.784 96.1083 236.665 96.1083 233.413 96.1083C233.413 95.1143 233.413 94.1302 233.413 93.3289C231.014 94.328 228.748 95.6224 226.311 96.2283C213.597 99.3885 201.834 90.7884 200.697 77.7486C200.126 71.2033 201.374 65.1993 205.614 60.0603C212.229 52.0448 224.086 50.4789 232.658 56.3941C232.821 56.5068 232.992 56.608 233.324 56.8191C233.324 55.7089 233.324 54.6928 233.324 53.5863C236.559 53.5863 239.633 53.5863 242.934 53.5863C242.934 55.6153 242.934 57.6717 242.934 59.8806ZM229.873 64.7613C225.782 60.5863 216.605 60.5992 212.527 66.5557C209.957 70.3096 209.499 74.4909 210.562 78.7893C211.693 83.3619 214.475 86.5931 219.234 87.5786C223.874 88.5396 228.035 87.5694 231.079 83.6212C235.045 78.4766 234.52 69.6251 229.873 64.7613Z" fill="white"/>
<path d="M261.756 39.4883C263.426 39.4883 264.943 39.4883 266.613 39.4883C266.613 44.1578 266.613 48.7493 266.613 53.4441C269.642 53.4441 272.52 53.4441 275.519 53.4441C275.519 56.4062 275.519 59.2668 275.519 62.2763C272.639 62.2763 269.724 62.2763 266.695 62.2763C266.695 73.6282 266.695 84.8338 266.695 96.1228C263.505 96.1228 260.429 96.1228 257.235 96.1228C257.235 84.95 257.235 73.7451 257.235 62.3651C254.518 62.3651 251.912 62.3651 249.253 62.3651C249.253 59.3594 249.253 56.5282 249.253 53.5757C251.804 53.5757 254.375 53.5757 257.094 53.5757C257.094 48.863 257.094 44.2668 257.094 39.4883C258.695 39.4883 260.15 39.4883 261.756 39.4883Z" fill="white"/>
<path d="M192.968 74.8309C192.968 81.9877 192.968 88.9919 192.968 96.1042C189.776 96.1042 186.665 96.1042 183.474 96.1042C183.474 76.7657 183.474 57.4355 183.474 37.9976C186.58 37.9976 189.697 37.9976 192.968 37.9976C192.968 50.218 192.968 62.4482 192.968 74.8309Z" fill="white"/>
<path d="M281.912 58.9662C281.912 57.0956 281.912 55.3775 281.912 53.5781C285.093 53.5781 288.164 53.5781 291.319 53.5781C291.319 67.7559 291.319 81.9071 291.319 96.1335C288.227 96.1335 285.152 96.1335 281.912 96.1335C281.912 83.7849 281.912 71.4518 281.912 58.9662Z" fill="white"/>
<path d="M360.93 76.6612C360.93 83.2097 360.93 89.6057 360.93 96.105C357.781 96.105 354.671 96.105 351.495 96.105C351.495 81.9459 351.495 67.8011 351.495 53.5762C354.595 53.5762 357.668 53.5762 360.93 53.5762C360.93 61.2169 360.93 68.8628 360.93 76.6612Z" fill="white"/>
<path d="M291.659 40.4374C291.659 43.8761 291.659 47.1709 291.659 50.5545C288.348 50.5545 285.123 50.5545 281.783 50.5545C281.783 46.8688 281.783 43.1881 281.783 39.2816C284.86 39.2816 287.988 39.2642 291.115 39.3249C291.303 39.3285 291.478 39.9563 291.659 40.4374Z" fill="white"/>
<path d="M364.912 48.0798H347.08L359.817 35.8521L360.816 43.036L364.912 48.0798Z" fill="white"/>
</svg>
